#!OML:ASF H:\BabyWalks\Project 1\Capture day 1\Session 1\baby.ASF
:FULLY-SPECIFIED
:DEGREES
610
root 27.2326 17.6615 0.478377 -29.7894 79.4004 -31.3777
lowerback 21.6468 0.920203 7.21728
upperback 8.7955 3.2961 1.64389
thorax -2.17361 2.0113 -3.08619
lowerneck -0.440618 1.88657 7.8498
upperneck 0.481504 2.60922 -11.6567
head 0.473767 1.30593 -4.76481
rclavicle 1.13307e-014 1.59028e-015
rhumerus -40.3928 4.093 -77.3508
rradius 48.099
rwrist -2.80994
rhand -11.4105 -16.8918
rfingers 7.12502
rthumb 14.625 -46.3561
lclavicle 1.13307e-014 1.59028e-015
lhumerus -48.7767 -2.94868 78.0964
lradius 57.2895
lwrist 2.5028
lhand 3.78857 11.0497
lfingers 7.12502
lthumb 29.2138 38.7765
rfemur 0.234167 10.6386 27.0909
rtibia 17.6466
rfoot -16.4594 3.97217
rtoes 7.78292
lfemur -22.4377 -4.58336 -4.2571
ltibia 20.2598
lfoot -12.8421 12.6039
ltoes -13.3106
611
root 27.318 17.6414 0.430221 -28.9834 78.4888 -30.3925
lowerback 21.6759 0.979853 7.34361
upperback 8.82238 3.39209 1.5838
thorax -2.13572 2.06296 -3.24215
lowerneck -0.352734 2.07555 7.95477
upperneck 0.515474 2.86852 -11.6531
head 0.496534 1.43654 -4.77854
rclavicle -2.74323e-014 -2.78299e-014
rhumerus -40.1822 4.15632 -77.4208
rradius 48.2937
rwrist -2.87302
rhand -11.456 -16.8327
rfingers 7.12502
rthumb 14.5812 -46.3002
lclavicle -2.74323e-014 -2.78299e-014
lhumerus -48.8929 -3.01723 78.0476
lradius 56.88
lwrist 2.39543
lhand 4.30255 11.2017
lfingers 7.12502
lthumb 29.7045 38.8421
rfemur 0.806426 10.8789 27.2278
rtibia 17.377
rfoot -16.5574 4.50492
rtoes 7.75484
lfemur -22.0335 -4.27264 -4.04529
ltibia 20.5219
lfoot -12.1345 12.2828
ltoes -13.338
612
root 27.4033 17.6214 0.382113 -28.4505 77.5963 -29.7101
lowerback 21.6891 1.03009 7.46884
upperback 8.83946 3.47485 1.53726
thorax -2.10222 2.10721 -3.37967
lowerneck -0.262846 2.26583 8.07211
upperneck 0.539888 3.12902 -11.6508
head 0.516798 1.56795 -4.79466
rclavicle 9.58142e-014 2.26615e-014
rhumerus -39.9779 4.21728 -77.4842
rradius 48.4971
rwrist -2.9624
rhand -11.5149 -16.7615
rfingers 7.12502
rthumb 14.5244 -46.2331
lclavicle 9.58142e-014 2.26615e-014
lhumerus -48.9979 -3.07448 77.9999
lradius 56.4834
lwrist 2.27194
lhand 4.82569 11.3589
lfingers 7.12502
lthumb 30.2037 38.9091
rfemur 1.37572 11.1362 27.3801
rtibia 17.0533
rfoot -16.6387 4.99338
rtoes 7.68188
lfemur -21.7128 -3.85219 -3.84202
ltibia 20.9478
lfoot -11.2264 11.7706
ltoes -13.2828
613
root 27.4883 17.602 0.334287 -28.1177 76.7259 -29.261
lowerback 21.6827 1.07229 7.58248
upperback 8.85043 3.54362 1.50319
thorax -2.06831 2.14379 -3.49353
lowerneck -0.180392 2.45776 8.21486
upperneck 0.554191 3.39072 -11.6596
head 0.536413 1.69991 -4.81824
rclavicle 1.86858e-014 9.34288e-015
rhumerus -39.7681 4.2664 -77.5419
rradius 48.7022
rwrist -3.07529
rhand -11.5757 -16.684
rfingers 7.12502
rthumb 14.4658 -46.1597
lclavicle 1.86858e-014 9.34288e-015
lhumerus -49.0749 -3.10738 77.945
lradius 56.0839
lwrist 2.13134
lhand 5.34117 11.5056
lfingers 7.12502
lthumb 30.6953 38.9647
rfemur 1.93351 11.4026 27.5461
rtibia 16.6804
rfoot -16.6982 5.4386
rtoes 7.55263
lfemur -21.4916 -3.34512 -3.63307
ltibia 21.5245
lfoot -10.1288 11.1409
ltoes -13.0544
614
root 27.5731 17.5834 0.287003 -27.915 75.8803 -28.9755
lowerback 21.6572 1.11195 7.67906
upperback 8.8564 3.60439 1.4806
thorax -2.03294 2.1756 -3.58296
lowerneck -0.110392 2.64599 8.37902
upperneck 0.560495 3.6464 -11.679
head 0.556146 1.82866 -4.84844
rclavicle -2.71341e-014 1.96797e-014
rhumerus -39.5569 4.28913 -77.5898
rradius 48.908
rwrist -3.21248
rhand -11.6572 -16.5939
rfingers 7.12502
rthumb 14.3873 -46.0752
lclavicle -2.71341e-014 1.96797e-014
lhumerus -49.1116 -3.12732 77.8879
lradius 55.6718
lwrist 1.9815
lhand 5.8212 11.6401
lfingers 7.12502
lthumb 31.1529 39.0123
rfemur 2.47265 11.6694 27.7188
rtibia 16.2702
rfoot -16.7366 5.84549
rtoes 7.3614
lfemur -21.3741 -2.76179 -3.41715
ltibia 22.2344
lfoot -8.88813 10.4858
ltoes -12.5942
615
root 27.6574 17.5658 0.240426 -27.7943 75.0635 -28.806
lowerback 21.6119 1.14897 7.7484
upperback 8.85979 3.65481 1.4679
thorax -1.99412 2.20148 -3.64329
lowerneck -0.0543453 2.832 8.55894
upperneck 0.555871 3.89761 -11.7038
head 0.575448 1.95494 -4.8827
rclavicle -2.5345e-014 -2.80286e-014
rhumerus -39.3398 4.29066 -77.6312
rradius 49.1096
rwrist -3.37313
rhand -11.7524 -16.4996
rfingers 7.12502
rthumb 14.2956 -45.9875
lclavicle -2.5345e-014 -2.80286e-014
lhumerus -49.0951 -3.12451 77.8238
lradius 55.2341
lwrist 1.82055
lhand 6.24201 11.7581
lfingers 7.12502
lthumb 31.5539 39.0525
rfemur 2.98111 11.9306 27.8917
rtibia 15.8403
rfoot -16.7531 6.21723
rtoes 7.11475
lfemur -21.3587 -2.09436 -3.20231
ltibia 23.0574
lfoot -7.60168 9.83761
ltoes -11.8784
616
root 27.7411 17.5494 0.194718 -27.6943 74.2876 -28.6831
lowerback 21.5522 1.18601 7.77801
upperback 8.86338 3.69627 1.46018
thorax -1.95222 2.22206 -3.67332
lowerneck -0.0156984 3.01079 8.74517
upperneck 0.545501 4.13766 -11.7255
head 0.595378 2.07523 -4.91678
rclavicle -4.6118e-014 1.66979e-014
rhumerus -39.1251 4.25427 -77.6657
rradius 49.3103
rwrist -3.54753
rhand -11.8814 -16.3993
rfingers 7.12502
rthumb 14.1713 -45.8959
lclavicle -4.6118e-014 1.66979e-014
lhumerus -49.0149 -3.10953 77.7516
lradius 54.7673
lwrist 1.6505
lhand 6.59868 11.8654
lfingers 7.12502
lthumb 31.8936 39.0927
rfemur 3.4539 12.1763 28.0467
rtibia 15.4171
rfoot -16.7582 6.55637
rtoes 6.84907
lfemur -21.426 -1.3351 -3.01601
ltibia 23.9691
lfoot -6.42403 9.20517
ltoes -11.0586
